<svg width="613" height="152" viewBox="0 0 613 152" fill="none" xmlns="http://www.w3.org/2000/svg">
<g filter="url(#filter0_d_243_2)">
<path d="M233.669 102.742C231.581 102.742 229.877 102.302 228.558 101.423C227.294 100.543 226.222 99.1419 225.343 97.2182L205.391 53.1927C204.511 51.269 204.237 49.5376 204.566 47.9987C204.896 46.4597 205.666 45.278 206.875 44.4535C208.084 43.5741 209.596 43.1344 211.409 43.1344C213.663 43.1344 215.339 43.6291 216.439 44.6184C217.593 45.6078 218.582 47.0643 219.407 48.988L236.225 87.9019H231.608L248.427 48.9055C249.252 46.9818 250.241 45.5528 251.395 44.6184C252.549 43.6291 254.171 43.1344 256.259 43.1344C257.963 43.1344 259.392 43.5741 260.546 44.4535C261.701 45.278 262.415 46.4597 262.69 47.9987C263.02 49.5376 262.745 51.269 261.866 53.1927L241.832 97.2182C241.007 99.1419 239.963 100.543 238.699 101.423C237.434 102.302 235.758 102.742 233.669 102.742ZM266.712 102.742C265.008 102.742 263.579 102.357 262.425 101.588C261.27 100.763 260.556 99.6641 260.281 98.29C260.006 96.8609 260.254 95.267 261.023 93.5082L281.552 49.3178C282.541 47.1742 283.75 45.6078 285.179 44.6184C286.663 43.6291 288.34 43.1344 290.209 43.1344C292.077 43.1344 293.699 43.6291 295.073 44.6184C296.502 45.6078 297.739 47.1742 298.783 49.3178L319.312 93.5082C320.191 95.267 320.493 96.8609 320.218 98.29C319.999 99.719 319.312 100.818 318.157 101.588C317.058 102.357 315.684 102.742 314.035 102.742C311.837 102.742 310.133 102.247 308.924 101.258C307.769 100.269 306.725 98.6747 305.791 96.4762L301.339 86.0057L307.11 90.2104H273.142L278.996 86.0057L274.544 96.4762C273.555 98.6747 272.538 100.269 271.494 101.258C270.449 102.247 268.855 102.742 266.712 102.742ZM290.044 59.7058L280.48 82.543L278.172 78.5857H302.163L299.855 82.543L290.209 59.7058H290.044ZM333.962 102.742C331.653 102.742 329.894 102.137 328.685 100.928C327.476 99.719 326.871 97.9327 326.871 95.5693V50.6369C326.871 48.2185 327.476 46.3772 328.685 45.1131C329.894 43.794 331.488 43.1344 333.467 43.1344C335.226 43.1344 336.6 43.4642 337.589 44.1237C338.579 44.7833 339.678 45.8826 340.887 47.4215L367.022 80.0697H364.714V50.2247C364.714 47.9162 365.291 46.1574 366.445 44.9482C367.654 43.739 369.413 43.1344 371.721 43.1344C374.03 43.1344 375.761 43.739 376.915 44.9482C378.125 46.1574 378.729 47.9162 378.729 50.2247V95.8991C378.729 97.9877 378.18 99.6641 377.08 100.928C375.981 102.137 374.497 102.742 372.628 102.742C370.759 102.742 369.275 102.412 368.176 101.753C367.132 101.038 366.005 99.9389 364.796 98.4549L338.661 65.7243H340.969V95.5693C340.969 97.9327 340.365 99.719 339.156 100.928C338.001 102.137 336.27 102.742 333.962 102.742ZM396.934 102.742C394.516 102.742 392.647 102.082 391.328 100.763C390.009 99.3892 389.349 97.493 389.349 95.0746V51.5438C389.349 49.0704 390.009 47.1742 391.328 45.8551C392.702 44.536 394.598 43.8764 397.016 43.8764H417.298C423.893 43.8764 428.978 45.5803 432.55 48.988C436.178 52.3407 437.992 56.9851 437.992 62.9212C437.992 68.8572 436.178 73.5291 432.55 76.9368C428.978 80.2895 423.893 81.9659 417.298 81.9659H404.519V95.0746C404.519 97.493 403.887 99.3892 402.623 100.763C401.359 102.082 399.462 102.742 396.934 102.742ZM404.519 70.3412H414.66C417.518 70.3412 419.716 69.7366 421.255 68.5274C422.794 67.2633 423.564 65.3945 423.564 62.9212C423.564 60.3929 422.794 58.5241 421.255 57.3149C419.716 56.1057 417.518 55.5011 414.66 55.5011H404.519V70.3412ZM452.731 102C450.313 102 448.416 101.34 447.042 100.021C445.723 98.6472 445.064 96.751 445.064 94.3326V51.4613C445.064 48.988 445.723 47.0918 447.042 45.7726C448.362 44.4535 450.23 43.794 452.649 43.794C455.122 43.794 456.991 44.4535 458.255 45.7726C459.574 47.0918 460.234 48.988 460.234 51.4613V89.3859H480.35C482.439 89.3859 484.033 89.9356 485.132 91.0348C486.286 92.0791 486.863 93.6181 486.863 95.6517C486.863 97.6854 486.286 99.2518 485.132 100.351C484.033 101.45 482.439 102 480.35 102H452.731ZM495.287 102.742C493.583 102.742 492.154 102.357 491 101.588C489.845 100.763 489.131 99.6641 488.856 98.29C488.581 96.8609 488.829 95.267 489.598 93.5082L510.127 49.3178C511.116 47.1742 512.325 45.6078 513.754 44.6184C515.238 43.6291 516.915 43.1344 518.784 43.1344C520.652 43.1344 522.274 43.6291 523.648 44.6184C525.077 45.6078 526.314 47.1742 527.358 49.3178L547.887 93.5082C548.766 95.267 549.068 96.8609 548.793 98.29C548.574 99.719 547.887 100.818 546.732 101.588C545.633 102.357 544.259 102.742 542.61 102.742C540.412 102.742 538.708 102.247 537.499 101.258C536.344 100.269 535.3 98.6747 534.366 96.4762L529.914 86.0057L535.685 90.2104H501.717L507.571 86.0057L503.119 96.4762C502.13 98.6747 501.113 100.269 500.069 101.258C499.024 102.247 497.43 102.742 495.287 102.742ZM518.619 59.7058L509.055 82.543L506.747 78.5857H530.738L528.43 82.543L518.784 59.7058H518.619ZM562.537 102.742C560.228 102.742 558.469 102.137 557.26 100.928C556.051 99.719 555.446 97.9327 555.446 95.5693V50.6369C555.446 48.2185 556.051 46.3772 557.26 45.1131C558.469 43.794 560.063 43.1344 562.042 43.1344C563.801 43.1344 565.175 43.4642 566.164 44.1237C567.154 44.7833 568.253 45.8826 569.462 47.4215L595.597 80.0697H593.289V50.2247C593.289 47.9162 593.866 46.1574 595.02 44.9482C596.229 43.739 597.988 43.1344 600.296 43.1344C602.605 43.1344 604.336 43.739 605.49 44.9482C606.7 46.1574 607.304 47.9162 607.304 50.2247V95.8991C607.304 97.9877 606.755 99.6641 605.655 100.928C604.556 102.137 603.072 102.742 601.203 102.742C599.334 102.742 597.85 102.412 596.751 101.753C595.707 101.038 594.58 99.9389 593.371 98.4549L567.236 65.7243H569.544V95.5693C569.544 97.9327 568.94 99.719 567.731 100.928C566.576 102.137 564.845 102.742 562.537 102.742Z" fill="white"/>
<path fill-rule="evenodd" clip-rule="evenodd" d="M120.906 19.929C140.857 19.929 157.1 35.7572 157.787 55.5411H157.785C163.347 59.5152 169 67.9316 169 75.2883C169 88.6227 156.865 94.1669 148.212 94.3542C145.631 94.2513 138.104 94.2789 128.182 94.3542C121.289 94.4056 38.2771 94.9529 25.3908 94.3542C12.5045 93.7555 4 81.8811 4 69.5219C4 54.2134 13.004 43.5107 27.5468 40.8588C30.5034 17.8134 50.1772 0 74.0269 0C90.261 0 104.565 8.25294 112.978 20.7921C115.532 20.232 118.184 19.929 120.906 19.929ZM53.1797 108.071C50.4361 106.721 44.3703 109.446 39.0024 113.359C34.9311 116.329 31.26 119.982 29.745 123.061C26.2319 130.201 29.1738 138.838 36.3139 142.351C43.454 145.864 52.0907 142.922 55.6038 135.782C57.1189 132.703 57.7727 127.566 57.6404 122.529C57.466 115.886 55.9215 109.418 53.1779 108.071H53.1797ZM47.6172 131.041C46.3629 133.591 43.2777 134.642 40.725 133.388C38.1742 132.133 37.1238 129.048 38.3781 126.495C39.6323 123.945 42.7176 122.894 45.2702 124.149C47.821 125.403 48.8714 128.488 47.6172 131.041ZM81.5306 113.359C86.8985 109.446 92.9643 106.721 95.7079 108.071H95.7061C98.4497 109.418 99.9941 115.886 100.169 122.529C100.301 127.566 99.6471 132.703 98.132 135.782C94.6189 142.922 85.9821 145.864 78.8421 142.351C71.702 138.838 68.76 130.201 72.2731 123.061C73.7882 119.982 77.4592 116.329 81.5306 113.359ZM83.2532 133.388C85.8058 134.642 88.891 133.591 90.1453 131.041C91.3996 128.488 90.3492 125.403 87.7984 124.149C85.2457 122.894 82.1605 123.945 80.9062 126.495C79.6519 129.048 80.7024 132.133 83.2532 133.388ZM124.061 113.359C129.429 109.446 135.494 106.721 138.238 108.071H138.236C140.98 109.418 142.524 115.886 142.699 122.529C142.831 127.566 142.177 132.703 140.662 135.782C137.149 142.922 128.512 145.864 121.372 142.351C114.232 138.838 111.29 130.201 114.803 123.061C116.318 119.982 119.989 116.329 124.061 113.359ZM125.783 133.388C128.336 134.642 131.421 133.591 132.675 131.041C133.93 128.488 132.879 125.403 130.328 124.149C127.776 122.894 124.69 123.945 123.436 126.495C122.182 129.048 123.231 132.133 125.783 133.388Z" fill="white"/>
</g>
<defs>
<filter id="filter0_d_243_2" x="0" y="0" width="611.304" height="151.834" filterUnits="userSpaceOnUse" color-interpolation-filters="sRGB">
<feFlood flood-opacity="0" result="BackgroundImageFix"/>
<feColorMatrix in="SourceAlpha" type="matrix" values="0 0 0 0 0 0 0 0 0 0 0 0 0 0 0 0 0 0 127 0" result="hardAlpha"/>
<feOffset dy="4"/>
<feGaussianBlur stdDeviation="2"/>
<feComposite in2="hardAlpha" operator="out"/>
<feColorMatrix type="matrix" values="0 0 0 0 0 0 0 0 0 0 0 0 0 0 0 0 0 0 0.25 0"/>
<feBlend mode="normal" in2="BackgroundImageFix" result="effect1_dropShadow_243_2"/>
<feBlend mode="normal" in="SourceGraphic" in2="effect1_dropShadow_243_2" result="shape"/>
</filter>
</defs>
</svg>
